<svg width="45" height="55" viewBox="0 0 45 55" fill="none" xmlns="http://www.w3.org/2000/svg">
<path d="M24.7084 23.3773C23.703 23.3773 22.7387 22.9779 22.0278 22.2669C21.3169 21.556 20.9174 20.5918 20.9174 19.5863C20.9174 18.5809 21.3169 17.6167 22.0278 16.9057C22.7387 16.1948 23.703 15.7954 24.7084 15.7954C27.8912 15.7919 30.9424 14.526 33.1931 12.2756C35.4435 10.0251 36.7096 6.97379 36.7132 3.79107C36.7132 2.78565 37.1126 1.8214 37.8237 1.11046C38.5344 0.399525 39.4987 0.00012207 40.5041 0.00012207C41.5096 0.00012207 42.4739 0.399525 43.1847 1.11046C43.8957 1.8214 44.2951 2.78565 44.2951 3.79107C44.2892 8.98392 42.2238 13.9624 38.5518 17.6343C34.8799 21.3061 29.9013 23.3715 24.7084 23.3773Z" fill="#EC6C0C"/>
<path d="M3.79119 54.9686C2.78575 54.9686 1.82147 54.5692 1.11051 53.8582C0.399543 53.1472 0.00012207 52.1831 0.00012207 51.1775C0.00596038 45.9846 2.07145 41.0061 5.74341 37.3341C9.41539 33.6622 14.3939 31.5968 19.5869 31.5911C20.5923 31.5911 21.5565 31.9904 22.2675 32.7015C22.9784 33.4123 23.3778 34.3766 23.3778 35.3821C23.3778 36.3874 22.9784 37.3518 22.2675 38.0625C21.5565 38.7736 20.5923 39.1729 19.5869 39.1729C16.4041 39.1766 13.3527 40.4424 11.1022 42.6928C8.85162 44.9435 7.58564 47.9947 7.58201 51.1775C7.58201 52.1828 7.18263 53.1472 6.47173 53.8582C5.76082 54.5692 4.79661 54.9686 3.79119 54.9686Z" fill="#BE3818"/>
<path d="M24.7084 54.9686C23.7084 54.9603 22.7522 54.5573 22.048 53.8473C21.3438 53.1373 20.9487 52.1777 20.9487 51.1775C20.9487 50.1777 21.3438 49.218 22.048 48.508C22.7522 47.798 23.7084 47.395 24.7084 47.3867C26.2849 47.3867 27.846 47.0761 29.3024 46.473C30.759 45.8697 32.0822 44.9853 33.197 43.8707C34.3118 42.7559 35.1959 41.4324 35.7993 39.9761C36.4026 38.5195 36.713 36.9584 36.713 35.3819C36.713 33.8054 36.4026 32.2445 35.7993 30.7879C35.1959 29.3316 34.3118 28.0081 33.197 26.8933C32.0822 25.7786 30.759 24.8944 29.3024 24.2911C27.846 23.6878 26.2849 23.3773 24.7084 23.3773C23.703 23.3773 22.7387 22.9779 22.0278 22.2669C21.3169 21.556 20.9174 20.5918 20.9174 19.5863C20.9174 18.5809 21.3169 17.6167 22.0278 16.9057C22.7387 16.1948 23.703 15.7954 24.7084 15.7954C27.2865 15.786 29.8411 16.2857 32.2257 17.2658C34.6105 18.2459 36.7781 19.6872 38.6042 21.5069C40.4306 23.3266 41.8799 25.489 42.8686 27.8701C43.8573 30.251 44.3665 32.8037 44.3665 35.3819C44.3665 37.96 43.8573 40.513 42.8686 42.894C41.8799 45.2749 40.4306 47.4373 38.6042 49.257C36.7781 51.0769 34.6105 52.5181 32.2257 53.4983C29.8411 54.4784 27.2865 54.978 24.7084 54.9686Z" fill="url(#paint0_linear_5_2)"/>
<path d="M38.2845 17.8953C40.1859 16.0713 41.6988 13.8815 42.7316 11.4576C43.7647 9.03372 44.2964 6.42587 44.2951 3.79107C44.2951 2.78565 43.8958 1.8214 43.1847 1.11046C42.4739 0.399525 41.5096 0.00012207 40.5043 0.00012207C39.4987 0.00012207 38.5344 0.399525 37.8237 1.11046C37.1126 1.8214 36.7132 2.78565 36.7132 3.79107C36.7122 5.83026 36.1919 7.83562 35.2011 9.61801C34.2106 11.4004 32.7823 12.9011 31.0509 13.9786C33.7124 14.7568 36.1782 16.0919 38.2845 17.8953Z" fill="url(#paint1_linear_5_2)"/>
<path d="M19.5869 39.1729C14.3923 39.1729 9.41036 37.1094 5.73721 33.4361C2.06402 29.7631 0.000457764 24.7811 0.000457764 19.5865C0.000457764 14.3918 2.06402 9.40992 5.73721 5.73674C9.41036 2.06357 14.3923 0 19.5869 0C20.5923 0 21.5566 0.399403 22.2675 1.11034C22.9785 1.82128 23.3779 2.78553 23.3779 3.79094C23.3779 4.79636 22.9785 5.76059 22.2675 6.47155C21.5566 7.18248 20.5923 7.58188 19.5869 7.58188C18.0105 7.58188 16.4494 7.89238 14.993 8.49567C13.5365 9.09896 12.2131 9.98322 11.0984 11.0979C9.98368 12.2127 9.09943 13.536 8.49613 14.9925C7.89284 16.449 7.58235 18.01 7.58235 19.5865C7.58235 21.1629 7.89284 22.724 8.49613 24.1804C9.09943 25.6369 9.98368 26.9602 11.0984 28.0751C12.2131 29.1896 13.5365 30.074 14.993 30.6773C16.4494 31.2804 18.0105 31.5911 19.5869 31.5911C20.5923 31.5911 21.5566 31.9904 22.2675 32.7015C22.9785 33.4122 23.3779 34.3766 23.3779 35.3819C23.3779 36.3874 22.9785 37.3518 22.2675 38.0625C21.5566 38.7736 20.5923 39.1729 19.5869 39.1729Z" fill="url(#paint2_linear_5_2)"/>
<path d="M6.01098 37.0731C4.10945 38.8971 2.59666 41.0868 1.56366 43.5108C0.530651 45.9348 -0.00119839 48.5426 0.00012976 51.1775C-0.00401101 51.6781 0.0909881 52.1743 0.279645 52.638C0.4683 53.1015 0.746884 53.5232 1.09932 53.8784C1.45175 54.234 1.87106 54.516 2.33305 54.7083C2.79505 54.9009 3.29059 55 3.79107 55C4.29157 55 4.78712 54.9009 5.24911 54.7083C5.7111 54.516 6.13041 54.234 6.48284 53.8784C6.83527 53.5232 7.11384 53.1015 7.3025 52.638C7.49116 52.1743 7.58616 51.6781 7.58201 51.1775C7.58302 49.1384 8.10343 47.1329 9.09416 45.3504C10.0849 43.5679 11.5133 42.0672 13.2446 40.9897C10.5831 40.2115 8.11742 38.8763 6.01098 37.0731Z" fill="#E64A1A"/>
<defs>
<linearGradient id="paint0_linear_5_2" x1="32.6419" y1="54.9686" x2="32.6419" y2="15.7953" gradientUnits="userSpaceOnUse">
<stop stop-color="#E9592D"/>
<stop offset="1" stop-color="#F39519"/>
</linearGradient>
<linearGradient id="paint1_linear_5_2" x1="34.6401" y1="16.0521" x2="46.7054" y2="4.61418" gradientUnits="userSpaceOnUse">
<stop offset="0.005" stop-color="#F39519"/>
<stop offset="0.146" stop-color="#F39519"/>
<stop offset="1" stop-color="#F39519"/>
</linearGradient>
<linearGradient id="paint2_linear_5_2" x1="11.6892" y1="39.1729" x2="11.6892" y2="0" gradientUnits="userSpaceOnUse">
<stop stop-color="#E9592D"/>
<stop offset="1" stop-color="#F39519"/>
</linearGradient>
</defs>
</svg>
