<svg width="196" height="55" viewBox="0 0 196 55" fill="none" xmlns="http://www.w3.org/2000/svg">
<path d="M24.7084 23.3773C23.703 23.3773 22.7387 22.9779 22.0278 22.2669C21.3169 21.556 20.9174 20.5918 20.9174 19.5863C20.9174 18.5809 21.3169 17.6167 22.0278 16.9057C22.7387 16.1948 23.703 15.7954 24.7084 15.7954C27.8912 15.7919 30.9424 14.526 33.1931 12.2756C35.4435 10.0251 36.7096 6.97379 36.7132 3.79107C36.7132 2.78565 37.1126 1.8214 37.8237 1.11046C38.5344 0.399525 39.4987 0.00012207 40.5041 0.00012207C41.5096 0.00012207 42.4739 0.399525 43.1847 1.11046C43.8957 1.8214 44.2951 2.78565 44.2951 3.79107C44.2892 8.98392 42.2238 13.9624 38.5518 17.6343C34.8799 21.3061 29.9013 23.3715 24.7084 23.3773Z" fill="#EC6C0C"/>
<path d="M3.79119 54.9686C2.78575 54.9686 1.82147 54.5692 1.11051 53.8582C0.399543 53.1472 0.00012207 52.1831 0.00012207 51.1775C0.00596038 45.9846 2.07145 41.0061 5.74341 37.3341C9.41539 33.6622 14.3939 31.5968 19.5869 31.5911C20.5923 31.5911 21.5565 31.9904 22.2675 32.7015C22.9784 33.4123 23.3778 34.3766 23.3778 35.3821C23.3778 36.3874 22.9784 37.3518 22.2675 38.0625C21.5565 38.7736 20.5923 39.1729 19.5869 39.1729C16.4041 39.1766 13.3527 40.4424 11.1022 42.6928C8.85162 44.9435 7.58564 47.9947 7.58201 51.1775C7.58201 52.1828 7.18263 53.1472 6.47173 53.8582C5.76082 54.5692 4.79661 54.9686 3.79119 54.9686Z" fill="#BE3818"/>
<path d="M24.7084 54.9686C23.7084 54.9603 22.7522 54.5573 22.048 53.8473C21.3438 53.1373 20.9487 52.1777 20.9487 51.1775C20.9487 50.1777 21.3438 49.218 22.048 48.508C22.7522 47.798 23.7084 47.395 24.7084 47.3867C26.2849 47.3867 27.846 47.0761 29.3024 46.473C30.759 45.8697 32.0822 44.9853 33.197 43.8707C34.3118 42.7559 35.1959 41.4324 35.7993 39.9761C36.4026 38.5195 36.713 36.9584 36.713 35.3819C36.713 33.8054 36.4026 32.2445 35.7993 30.7879C35.1959 29.3316 34.3118 28.0081 33.197 26.8933C32.0822 25.7786 30.759 24.8944 29.3024 24.2911C27.846 23.6878 26.2849 23.3773 24.7084 23.3773C23.703 23.3773 22.7387 22.9779 22.0278 22.2669C21.3169 21.556 20.9174 20.5918 20.9174 19.5863C20.9174 18.5809 21.3169 17.6167 22.0278 16.9057C22.7387 16.1948 23.703 15.7954 24.7084 15.7954C27.2865 15.786 29.8411 16.2857 32.2257 17.2658C34.6105 18.2459 36.7781 19.6872 38.6042 21.5069C40.4306 23.3266 41.8799 25.489 42.8686 27.8701C43.8573 30.251 44.3665 32.8037 44.3665 35.3819C44.3665 37.96 43.8573 40.513 42.8686 42.894C41.8799 45.2749 40.4306 47.4373 38.6042 49.257C36.7781 51.0769 34.6105 52.5181 32.2257 53.4983C29.8411 54.4784 27.2865 54.978 24.7084 54.9686Z" fill="url(#paint0_linear_2_21)"/>
<path d="M38.2845 17.8953C40.1859 16.0713 41.6988 13.8815 42.7316 11.4576C43.7647 9.03372 44.2964 6.42587 44.2951 3.79107C44.2951 2.78565 43.8958 1.8214 43.1847 1.11046C42.4739 0.399525 41.5096 0.00012207 40.5043 0.00012207C39.4987 0.00012207 38.5344 0.399525 37.8237 1.11046C37.1126 1.8214 36.7132 2.78565 36.7132 3.79107C36.7122 5.83026 36.1919 7.83562 35.2011 9.61801C34.2106 11.4004 32.7823 12.9011 31.0509 13.9786C33.7124 14.7568 36.1782 16.0919 38.2845 17.8953Z" fill="url(#paint1_linear_2_21)"/>
<path d="M19.5869 39.1729C14.3923 39.1729 9.41036 37.1094 5.73721 33.4361C2.06402 29.7631 0.000457764 24.7811 0.000457764 19.5865C0.000457764 14.3918 2.06402 9.40992 5.73721 5.73674C9.41036 2.06357 14.3923 0 19.5869 0C20.5924 0 21.5566 0.399403 22.2675 1.11034C22.9785 1.82128 23.3779 2.78553 23.3779 3.79094C23.3779 4.79636 22.9785 5.76059 22.2675 6.47155C21.5566 7.18248 20.5924 7.58188 19.5869 7.58188C18.0105 7.58188 16.4494 7.89238 14.993 8.49567C13.5365 9.09896 12.2131 9.98322 11.0984 11.0979C9.98368 12.2127 9.09943 13.536 8.49613 14.9925C7.89284 16.449 7.58235 18.01 7.58235 19.5865C7.58235 21.1629 7.89284 22.724 8.49613 24.1804C9.09943 25.6369 9.98368 26.9602 11.0984 28.0751C12.2131 29.1896 13.5365 30.074 14.993 30.6773C16.4494 31.2804 18.0105 31.5911 19.5869 31.5911C20.5924 31.5911 21.5566 31.9904 22.2675 32.7015C22.9785 33.4122 23.3779 34.3766 23.3779 35.3819C23.3779 36.3874 22.9785 37.3518 22.2675 38.0625C21.5566 38.7736 20.5924 39.1729 19.5869 39.1729Z" fill="url(#paint2_linear_2_21)"/>
<path d="M6.01098 37.0731C4.10945 38.8971 2.59666 41.0868 1.56366 43.5108C0.530651 45.9348 -0.00119839 48.5426 0.00012976 51.1775C-0.00401101 51.6781 0.0909881 52.1743 0.279645 52.638C0.4683 53.1015 0.746884 53.5232 1.09932 53.8784C1.45175 54.234 1.87106 54.516 2.33305 54.7083C2.79505 54.9009 3.29059 55 3.79107 55C4.29157 55 4.78712 54.9009 5.24911 54.7083C5.7111 54.516 6.13041 54.234 6.48284 53.8784C6.83527 53.5232 7.11384 53.1015 7.3025 52.638C7.49116 52.1743 7.58616 51.6781 7.58201 51.1775C7.58302 49.1384 8.10343 47.1329 9.09416 45.3504C10.0849 43.5679 11.5133 42.0672 13.2446 40.9897C10.5831 40.2115 8.11742 38.8763 6.01098 37.0731Z" fill="#E64A1A"/>
<path d="M65.3892 25C65.3589 24.6212 65.2169 24.3258 64.9631 24.1136C64.7131 23.9015 64.3324 23.7955 63.821 23.7955C63.4953 23.7955 63.2282 23.8352 63.0199 23.9148C62.8153 23.9905 62.6638 24.0947 62.5653 24.2273C62.4669 24.3598 62.4157 24.5114 62.4119 24.6818C62.4044 24.822 62.429 24.9489 62.4858 25.0625C62.5464 25.1723 62.6411 25.2727 62.7699 25.3636C62.8987 25.4508 63.0635 25.5303 63.2642 25.6023C63.465 25.6742 63.7036 25.7386 63.9801 25.7955L64.9347 26C65.5786 26.1364 66.1297 26.3163 66.5881 26.5398C67.0464 26.7633 67.4214 27.0265 67.7131 27.3295C68.0047 27.6288 68.2188 27.9659 68.3551 28.3409C68.4953 28.7159 68.5672 29.125 68.571 29.5682C68.5672 30.3333 68.376 30.9811 67.9972 31.5114C67.6184 32.0417 67.0767 32.4451 66.3722 32.7216C65.6714 32.9981 64.8286 33.1364 63.8438 33.1364C62.8324 33.1364 61.9498 32.9867 61.196 32.6875C60.446 32.3883 59.8627 31.928 59.446 31.3068C59.0332 30.6818 58.8248 29.8826 58.821 28.9091H61.821C61.84 29.2652 61.929 29.5644 62.0881 29.8068C62.2472 30.0492 62.4707 30.233 62.7585 30.358C63.0502 30.483 63.3968 30.5455 63.7983 30.5455C64.1354 30.5455 64.4176 30.5038 64.6449 30.4205C64.8722 30.3371 65.0445 30.2216 65.1619 30.0739C65.2794 29.9261 65.34 29.7576 65.3438 29.5682C65.34 29.3902 65.2813 29.2348 65.1676 29.1023C65.0578 28.9659 64.876 28.8447 64.6222 28.7386C64.3684 28.6288 64.0256 28.5265 63.5938 28.4318L62.4347 28.1818C61.4044 27.9583 60.5919 27.5852 59.9972 27.0625C59.4063 26.536 59.1127 25.8182 59.1165 24.9091C59.1127 24.1705 59.3097 23.5246 59.7074 22.9716C60.1089 22.4148 60.6638 21.9811 61.3722 21.6705C62.0843 21.3598 62.9006 21.2045 63.821 21.2045C64.7604 21.2045 65.5729 21.3617 66.2585 21.6761C66.9441 21.9905 67.4725 22.4337 67.8438 23.0057C68.2188 23.5739 68.4082 24.2386 68.4119 25H65.3892ZM69.7727 33V21.3636H78.1591V23.9091H72.9318V25.9091H77.7273V28.4545H72.9318V30.4545H78.1364V33H69.7727ZM82.7486 33H79.3395L83.1804 21.3636H87.4986L91.3395 33H87.9304L85.385 24.5682H85.294L82.7486 33ZM82.1122 28.4091H88.5213V30.7727H82.1122V28.4091ZM92.4602 33V21.3636H97.483C98.3466 21.3636 99.1023 21.5208 99.75 21.8352C100.398 22.1496 100.902 22.6023 101.261 23.1932C101.621 23.7841 101.801 24.4924 101.801 25.3182C101.801 26.1515 101.616 26.8542 101.244 27.4261C100.877 27.9981 100.36 28.4299 99.6932 28.7216C99.0303 29.0133 98.2557 29.1591 97.3693 29.1591H94.3693V26.7045H96.733C97.1042 26.7045 97.4205 26.6591 97.6818 26.5682C97.947 26.4735 98.1496 26.3239 98.2898 26.1193C98.4337 25.9148 98.5057 25.6477 98.5057 25.3182C98.5057 24.9848 98.4337 24.714 98.2898 24.5057C98.1496 24.2936 97.947 24.1383 97.6818 24.0398C97.4205 23.9375 97.1042 23.8864 96.733 23.8864H95.6193V33H92.4602ZM99.2784 27.6591L102.188 33H98.7557L95.9148 27.6591H99.2784ZM114.011 25.7273H110.807C110.784 25.4621 110.723 25.2216 110.625 25.0057C110.53 24.7898 110.398 24.6042 110.227 24.4489C110.061 24.2898 109.858 24.1686 109.619 24.0852C109.381 23.9981 109.11 23.9545 108.807 23.9545C108.277 23.9545 107.828 24.0833 107.46 24.3409C107.097 24.5985 106.82 24.9678 106.631 25.4489C106.445 25.9299 106.352 26.5076 106.352 27.1818C106.352 27.8939 106.447 28.4905 106.636 28.9716C106.83 29.4489 107.108 29.8087 107.472 30.0511C107.835 30.2898 108.273 30.4091 108.784 30.4091C109.076 30.4091 109.337 30.3731 109.568 30.3011C109.799 30.2254 110 30.1174 110.17 29.9773C110.341 29.8371 110.479 29.6686 110.585 29.4716C110.695 29.2708 110.769 29.0455 110.807 28.7955L114.011 28.8182C113.973 29.3106 113.835 29.8125 113.597 30.3239C113.358 30.8314 113.019 31.3011 112.58 31.733C112.144 32.161 111.604 32.5057 110.96 32.767C110.316 33.0284 109.568 33.1591 108.716 33.1591C107.648 33.1591 106.689 32.9299 105.841 32.4716C104.996 32.0133 104.328 31.339 103.835 30.4489C103.347 29.5587 103.102 28.4697 103.102 27.1818C103.102 25.8864 103.352 24.7955 103.852 23.9091C104.352 23.0189 105.027 22.3466 105.875 21.892C106.723 21.4337 107.67 21.2045 108.716 21.2045C109.451 21.2045 110.127 21.3049 110.744 21.5057C111.362 21.7064 111.903 22 112.369 22.3864C112.835 22.7689 113.21 23.2405 113.494 23.8011C113.778 24.3617 113.951 25.0038 114.011 25.7273ZM115.445 33V21.3636H118.604V25.9091H122.786V21.3636H125.945V33H122.786V28.4545H118.604V33H115.445ZM131.439 33.1818C130.659 33.1818 129.979 32.9867 129.399 32.5966C128.823 32.2064 128.376 31.6723 128.058 30.9943C127.74 30.3163 127.581 29.5436 127.581 28.6761C127.581 27.8011 127.742 27.0227 128.064 26.3409C128.39 25.6591 128.84 25.125 129.416 24.7386C129.992 24.3485 130.661 24.1534 131.422 24.1534C132.005 24.1534 132.534 24.267 133.007 24.4943C133.481 24.7178 133.871 25.0341 134.178 25.4432C134.488 25.8485 134.683 26.322 134.763 26.8636H133.74C133.634 26.3712 133.378 25.9508 132.973 25.6023C132.572 25.25 132.06 25.0739 131.439 25.0739C130.882 25.0739 130.39 25.2254 129.962 25.5284C129.534 25.8277 129.198 26.2462 128.956 26.7841C128.717 27.3182 128.598 27.9375 128.598 28.642C128.598 29.3504 128.715 29.9773 128.95 30.5227C129.185 31.0644 129.515 31.4886 129.939 31.7955C130.367 32.1023 130.867 32.2557 131.439 32.2557C131.825 32.2557 132.178 32.1837 132.496 32.0398C132.818 31.892 133.087 31.6837 133.303 31.4148C133.522 31.1458 133.67 30.8258 133.746 30.4545H134.768C134.693 30.9811 134.505 31.4508 134.206 31.8636C133.911 32.2727 133.526 32.5947 133.053 32.8295C132.583 33.0644 132.045 33.1818 131.439 33.1818ZM140.328 33.1818C139.574 33.1818 138.908 32.9905 138.328 32.608C137.752 32.2254 137.302 31.697 136.976 31.0227C136.65 30.3447 136.487 29.5625 136.487 28.6761C136.487 27.7822 136.65 26.9962 136.976 26.3182C137.302 25.6364 137.752 25.1061 138.328 24.7273C138.908 24.3447 139.574 24.1534 140.328 24.1534C141.082 24.1534 141.747 24.3447 142.322 24.7273C142.898 25.1098 143.349 25.6402 143.675 26.3182C144.004 26.9962 144.169 27.7822 144.169 28.6761C144.169 29.5625 144.006 30.3447 143.68 31.0227C143.355 31.697 142.902 32.2254 142.322 32.608C141.747 32.9905 141.082 33.1818 140.328 33.1818ZM140.328 32.2557C140.934 32.2557 141.447 32.0928 141.868 31.767C142.288 31.4413 142.607 31.0076 142.822 30.4659C143.042 29.9242 143.152 29.3277 143.152 28.6761C143.152 28.0246 143.042 27.4261 142.822 26.8807C142.607 26.3352 142.288 25.8977 141.868 25.5682C141.447 25.2386 140.934 25.0739 140.328 25.0739C139.726 25.0739 139.213 25.2386 138.788 25.5682C138.368 25.8977 138.048 26.3352 137.828 26.8807C137.612 27.4261 137.504 28.0246 137.504 28.6761C137.504 29.3277 137.612 29.9242 137.828 30.4659C138.048 31.0076 138.368 31.4413 138.788 31.767C139.209 32.0928 139.722 32.2557 140.328 32.2557ZM146.389 33V24.2727H147.372V25.6136H147.463C147.637 25.1629 147.927 24.8087 148.332 24.5511C148.741 24.2898 149.232 24.1591 149.804 24.1591C150.406 24.1591 150.901 24.3011 151.287 24.5852C151.677 24.8655 151.969 25.2519 152.162 25.7443H152.236C152.433 25.2595 152.753 24.875 153.196 24.5909C153.643 24.303 154.185 24.1591 154.821 24.1591C155.632 24.1591 156.272 24.4148 156.741 24.9261C157.211 25.4337 157.446 26.1761 157.446 27.1534V33H156.435V27.1534C156.435 26.464 156.259 25.947 155.906 25.6023C155.554 25.2576 155.09 25.0852 154.514 25.0852C153.848 25.0852 153.334 25.2898 152.974 25.6989C152.615 26.108 152.435 26.6269 152.435 27.2557V33H151.401V27.0625C151.401 26.4716 151.236 25.9943 150.906 25.6307C150.577 25.267 150.113 25.0852 149.514 25.0852C149.113 25.0852 148.751 25.1837 148.429 25.3807C148.111 25.5777 147.859 25.8523 147.673 26.2045C147.491 26.553 147.401 26.9545 147.401 27.4091V33H146.389ZM160.124 36.2727V24.2727H161.107V25.9375H161.226C161.347 25.6761 161.514 25.4091 161.726 25.1364C161.938 24.8598 162.218 24.6269 162.567 24.4375C162.919 24.2481 163.362 24.1534 163.896 24.1534C164.616 24.1534 165.245 24.3428 165.783 24.7216C166.324 25.0966 166.745 25.6231 167.044 26.3011C167.347 26.9754 167.499 27.7614 167.499 28.6591C167.499 29.5606 167.347 30.3504 167.044 31.0284C166.745 31.7064 166.324 32.2348 165.783 32.6136C165.245 32.9924 164.62 33.1818 163.908 33.1818C163.381 33.1818 162.94 33.0871 162.584 32.8977C162.232 32.7083 161.946 32.4754 161.726 32.1989C161.51 31.9186 161.343 31.6458 161.226 31.3807H161.135V36.2727H160.124ZM161.124 28.642C161.124 29.3466 161.228 29.9716 161.436 30.517C161.648 31.0587 161.951 31.4848 162.345 31.7955C162.743 32.1023 163.224 32.2557 163.788 32.2557C164.368 32.2557 164.857 32.0966 165.254 31.7784C165.656 31.4564 165.961 31.0227 166.169 30.4773C166.381 29.9318 166.487 29.3201 166.487 28.642C166.487 27.9716 166.383 27.3674 166.175 26.8295C165.97 26.2917 165.667 25.8655 165.266 25.5511C164.864 25.233 164.372 25.0739 163.788 25.0739C163.22 25.0739 162.737 25.2273 162.339 25.5341C161.942 25.8371 161.639 26.2576 161.43 26.7955C161.226 27.3295 161.124 27.9451 161.124 28.642ZM172.155 33.1989C171.628 33.1989 171.147 33.0966 170.712 32.892C170.276 32.6837 169.929 32.3845 169.672 31.9943C169.414 31.6004 169.286 31.1231 169.286 30.5625C169.286 30.1307 169.367 29.767 169.53 29.4716C169.693 29.1761 169.924 28.9337 170.223 28.7443C170.522 28.5549 170.876 28.4053 171.286 28.2955C171.695 28.1856 172.145 28.1004 172.638 28.0398C173.126 27.9792 173.539 27.9261 173.876 27.8807C174.217 27.8352 174.477 27.7633 174.655 27.6648C174.833 27.5663 174.922 27.4072 174.922 27.1875V26.983C174.922 26.3883 174.744 25.9205 174.388 25.5795C174.036 25.2348 173.528 25.0625 172.865 25.0625C172.236 25.0625 171.723 25.2008 171.325 25.4773C170.931 25.7538 170.655 26.0795 170.496 26.4545L169.536 26.108C169.732 25.6307 170.005 25.25 170.354 24.9659C170.702 24.678 171.092 24.4716 171.524 24.3466C171.956 24.2178 172.393 24.1534 172.837 24.1534C173.17 24.1534 173.517 24.197 173.876 24.2841C174.24 24.3712 174.577 24.5227 174.888 24.7386C175.198 24.9508 175.45 25.2481 175.643 25.6307C175.837 26.0095 175.933 26.4905 175.933 27.0739V33H174.922V31.6193H174.859C174.738 31.8769 174.558 32.1269 174.32 32.3693C174.081 32.6117 173.782 32.8106 173.422 32.9659C173.062 33.1212 172.64 33.1989 172.155 33.1989ZM172.291 32.2727C172.829 32.2727 173.295 32.1534 173.689 31.9148C174.083 31.6761 174.386 31.3598 174.598 30.9659C174.814 30.5682 174.922 30.1307 174.922 29.6534V28.392C174.846 28.464 174.719 28.5284 174.541 28.5852C174.367 28.642 174.164 28.6932 173.933 28.7386C173.706 28.7803 173.479 28.8163 173.251 28.8466C173.024 28.8769 172.82 28.9034 172.638 28.9261C172.145 28.9867 171.725 29.0814 171.376 29.2102C171.028 29.339 170.761 29.517 170.575 29.7443C170.39 29.9678 170.297 30.2557 170.297 30.608C170.297 31.1383 170.486 31.5492 170.865 31.8409C171.244 32.1288 171.719 32.2727 172.291 32.2727ZM179.635 27.5455V33H178.624V24.2727H179.607V25.642H179.697C179.902 25.1951 180.22 24.8371 180.652 24.5682C181.088 24.2955 181.625 24.1591 182.266 24.1591C182.853 24.1591 183.368 24.2822 183.811 24.5284C184.258 24.7708 184.605 25.1288 184.851 25.6023C185.101 26.0758 185.226 26.6572 185.226 27.3466V33H184.214V27.4091C184.214 26.6932 184.014 26.1269 183.612 25.7102C183.214 25.2936 182.68 25.0852 182.01 25.0852C181.552 25.0852 181.144 25.1837 180.788 25.3807C180.432 25.5777 180.15 25.8617 179.942 26.233C179.737 26.6004 179.635 27.0379 179.635 27.5455ZM188.281 36.2727C188.081 36.2727 187.893 36.2538 187.719 36.2159C187.545 36.178 187.406 36.1364 187.304 36.0909L187.577 35.1989C187.921 35.3049 188.228 35.3428 188.497 35.3125C188.766 35.286 189.005 35.1648 189.213 34.9489C189.421 34.7367 189.607 34.411 189.77 33.9716L190.088 33.0852L186.878 24.2727H187.974L190.565 31.6648H190.645L193.236 24.2727H194.332L190.639 34.3807C190.484 34.8011 190.293 35.1515 190.065 35.4318C189.838 35.7159 189.575 35.9261 189.276 36.0625C188.98 36.2027 188.649 36.2727 188.281 36.2727Z" fill="#EC6928"/>
<defs>
<linearGradient id="paint0_linear_2_21" x1="32.6419" y1="54.9686" x2="32.6419" y2="15.7953" gradientUnits="userSpaceOnUse">
<stop stop-color="#E9592D"/>
<stop offset="1" stop-color="#F39519"/>
</linearGradient>
<linearGradient id="paint1_linear_2_21" x1="34.6401" y1="16.0521" x2="46.7054" y2="4.61418" gradientUnits="userSpaceOnUse">
<stop offset="0.005" stop-color="#F39519"/>
<stop offset="0.146" stop-color="#F39519"/>
<stop offset="1" stop-color="#F39519"/>
</linearGradient>
<linearGradient id="paint2_linear_2_21" x1="11.6892" y1="39.1729" x2="11.6892" y2="0" gradientUnits="userSpaceOnUse">
<stop stop-color="#E9592D"/>
<stop offset="1" stop-color="#F39519"/>
</linearGradient>
</defs>
</svg>
